<svg xmlns="http://www.w3.org/2000/svg" width="19.831" height="18.793" viewBox="0 0 19.831 18.793">
    <g data-name="Group 103">
        <path data-name="Path 179" d="M17.267 19.3h-1.413a1.554 1.554 0 0 0-1.563 1.513v8.2a1.564 1.564 0 0 0 1.563 1.525h1.426c.038 0 .088-.012.125-.012.4-.075 2.426-.688 2.426-5.827a11.137 11.137 0 0 0-.4-3.238.733.733 0 0 0 .025-.163 9.54 9.54 0 0 0-19.08 0 .73.73 0 0 0 .075.325A11.741 11.741 0 0 0 0 25.139a7.9 7.9 0 0 0 .988 4.476 2 2 0 0 0 1.563.938h1.438a1.564 1.564 0 0 0 1.563-1.525v-8.2A1.575 1.575 0 0 0 3.976 19.3H2.551a.426.426 0 0 0-.125.012 1.448 1.448 0 0 0-.325.1 8.037 8.037 0 0 1 15.617-.038 1.485 1.485 0 0 0-.438-.075zM2.688 20.8h1.288a.543.543 0 0 1 .063.012v8.2c0 .012-.05.025-.063.025H2.563c-.288-.125-1.063-.875-1.063-3.914 0-3.435.963-4.198 1.188-4.323zm15.642 3.914c0 3.463-.963 4.214-1.188 4.339h-1.288a.321.321 0 0 1-.063-.025v-8.2c0-.012.05-.012.063-.012h1.426c.275-.016 1.05.859 1.05 3.898z" transform="translate(0 -11.76)" style="fill:#3a4649"/>
    </g>
</svg>
