<svg xmlns="http://www.w3.org/2000/svg" width="15.051" height="18.793" viewBox="0 0 15.051 18.793">
    <g data-name="Group 2254">
        <path data-name="Path 8377" d="M297.87 151.345c0-2.437.02-4.875-.007-7.311a3.068 3.068 0 0 1 2.412-2.939 2.892 2.892 0 0 1 .482-.036h9.268a2.972 2.972 0 0 1 2.886 2.886v14.864a.956.956 0 0 1-1.579.806q-2.87-2.059-5.745-4.111a.282.282 0 0 0-.4 0q-2.887 2.075-5.782 4.135a.945.945 0 0 1-1.128.048.985.985 0 0 1-.414-.875v-6.32zm1.678 6.026c.126-.087.21-.145.293-.2 1.576-1.126 3.386-2.187 4.963-3.313a.979.979 0 0 1 1.26.006c1.6 1.147 3.441 2.3 5.04 3.448.056.041.117.075.2.129v-.27c0-4.265-.029-8.889-.029-13.154 0-.828-.229-1.246-1.064-1.246-3.039 0-6.558-.077-9.6-.076a2.773 2.773 0 0 0-.351.019.921.921 0 0 0-.737.921c-.009.094-.006.191-.006.286 0 4.273.028 8.9.028 13.176z" transform="translate(-297.863 -141.056)" style="fill:#3a4649"/>
    </g>
</svg>
