<svg xmlns="http://www.w3.org/2000/svg" width="20.479" height="18.79" viewBox="0 0 20.479 18.79">
    <g data-name="Group 2275">
        <g data-name="Group 2276">
            <path data-name="Path 9770" d="M0 .673A.945.945 0 0 1 1.048 0c.473.02.856.024 1.329.025a.862.862 0 0 1 .933.878c.064.8.139 1.594.21 2.39a1.473 1.473 0 0 0 .032.154h.258c5.215 0 10.521-.021 15.737-.02a.829.829 0 0 1 .916.659 1.124 1.124 0 0 1-.022.472q-.8 3.228-1.611 6.453l-.063.252a.849.849 0 0 1-.827.687c-1.4.085-2.8.164-4.193.247l-5.87.347q-1.527.09-3.055.174l-.264.014a.913.913 0 0 0 .056.153A1.97 1.97 0 0 0 6.089 14c3.068 0 6.162.189 9.23.194a3.275 3.275 0 0 1 .713.073 2.083 2.083 0 0 1 1.695 2.258 2.319 2.319 0 0 1-2.307 2.268 2.237 2.237 0 0 1-2.32-2.032 3.22 3.22 0 0 1 .259-1.383H7.961a2.48 2.48 0 0 1 0 2.1 2.291 2.291 0 0 1-3.8.417 2.744 2.744 0 0 1 .084-3.024 97.779 97.779 0 0 1-.55-.611 3.4 3.4 0 0 1-.831-2.033c-.175-2.066-.368-4.13-.552-6.194-.125-1.394-.233-3.006-.351-4.4-.013-.15-.064-.194-.207-.186-.179.011-.5.007-.676.022A.932.932 0 0 1 .017.816zm18.807 4.2c-3.7-.07-15.152.031-15.152.031.178 1.986.409 4.474.585 6.432a.347.347 0 0 0 .068.018c1.371-.078 2.869-.217 4.24-.3l5.172-.305c1.158-.068 2.557-.1 3.715-.179a.221.221 0 0 0 .156-.127c.069-.215.18-.669.235-.888.365-1.46.613-3.207.983-4.685m-2.525 11.652a.868.868 0 1 0-1.736.01.868.868 0 0 0 1.736-.01m-11.18 0a.866.866 0 0 0 .861.867.869.869 0 1 0-.861-.867" style="fill:#3a4649"/>
        </g>
    </g>
</svg>
