<svg xmlns="http://www.w3.org/2000/svg" width="19.715" height="18.793" viewBox="0 0 19.715 18.793">
    <g data-name="Group 68">
        <path data-name="Path 127" d="M3.4 30.126h13.813a.673.673 0 0 0 .3-.069 3.923 3.923 0 0 0 2.2-3.205V16.06a.694.694 0 0 0-.692-.692H16.6v-3.343a.694.694 0 0 0-.692-.692H.692a.694.694 0 0 0-.692.692V26.7a.658.658 0 0 0 .012.15c.034.14.76 3.276 3.388 3.276zM1.384 12.717h13.835v13.028a.692.692 0 0 0 1.384 0v-8.993h1.729v10.1a2.43 2.43 0 0 1-1.3 1.891H3.4c-1.36 0-1.914-1.764-2.018-2.133V12.717z" transform="translate(0 -11.333)" style="fill:#3a4649"/>
        <path data-name="Path 128" d="M89.612 102.692a.694.694 0 0 0-.692-.692h-3.228a.694.694 0 0 0-.692.692v3.689a.694.694 0 0 0 .692.692h3.228a.694.694 0 0 0 .692-.692zm-3.228.692h1.845v2.306h-1.845z" transform="translate(-81.541 -98.311)" style="fill:#3a4649"/>
        <path data-name="Path 129" d="M80.025 352.717h8.993a.692.692 0 1 0 0-1.383h-8.993a.692.692 0 1 0 0 1.383z" transform="translate(-76.105 -337.498)" style="fill:#3a4649"/>
        <path data-name="Path 130" d="M82.859 270.55h8.762a.692.692 0 1 0 0-1.383h-8.762a.692.692 0 1 0 0 1.383z" transform="translate(-78.824 -258.675)" style="fill:#3a4649"/>
        <path data-name="Path 131" d="M235.859 106.217h2.652a.692.692 0 1 0 0-1.384h-2.652a.692.692 0 0 0 0 1.384z" transform="translate(-225.598 -101.028)" style="fill:#3a4649"/>
        <path data-name="Path 132" d="M235.859 188.384h2.652a.692.692 0 1 0 0-1.384h-2.652a.692.692 0 0 0 0 1.384z" transform="translate(-225.598 -179.852)" style="fill:#3a4649"/>
    </g>
</svg>
